<svg width="32" height="32" viewBox="0 0 32 32" fill="none" xmlns="http://www.w3.org/2000/svg">
  <rect width="32" height="32" rx="8" fill="#09090b"/>
  <line x1="16" y1="20" x2="16" y2="28" stroke="#a855f7" stroke-width="2" stroke-linecap="round"/>
  <line x1="8" y1="20" x2="24" y2="20" stroke="#a855f7" stroke-width="2" stroke-linecap="round"/>
  <circle cx="16" cy="20" r="2.5" fill="#c084fc"/>
  <path d="M10 12C10 7.58 13.58 4 18 4C22.42 4 26 7.58 26 12V18C26 18 22 14 18 14C14 14 10 18 10 18V12Z" fill="none" stroke="#a855f7" stroke-width="2" stroke-linecap="round"/>
  <path d="M18 8L19 10L21 11L19 12L18 14L17 12L15 11L17 10Z" fill="#c084fc"/>
</svg>