<svg width="48" height="48" viewBox="0 0 48 48" fill="none" xmlns="http://www.w3.org/2000/svg">
  <style>
    @keyframes pulse {{ 0%, 100% {{ opacity: 0.4; }} 50% {{ opacity: 1; }} }}
    @keyframes spin {{ from {{ transform: rotate(0deg); }} to {{ transform: rotate(360deg); }} }}
    .pulse {{ animation: pulse 2s ease-in-out infinite; }}
    .sparkle {{ animation: pulse 1.5s ease-in-out infinite; transform-origin: 24px 12px; }}
  </style>
  <rect width="48" height="48" rx="12" fill="#18181b"/>
  <g class="pulse">
    <line x1="24" y1="30" x2="24" y2="42" stroke="#a855f7" stroke-width="2.5" stroke-linecap="round"/>
    <line x1="12" y1="30" x2="36" y2="30" stroke="#a855f7" stroke-width="2.5" stroke-linecap="round"/>
    <circle cx="24" cy="30" r="3.5" fill="#c084fc"/>
    <path d="M14 18C14 11 20 6 26 6C32 6 38 11 38 18V26C38 26 32 22 26 22C20 22 14 26 14 26V18Z" fill="none" stroke="#a855f7" stroke-width="2.5" stroke-linecap="round"/>
    <path d="M26 10L27.5 14L31 15.5L27.5 17L26 20L24.5 17L21 15.5L24.5 14Z" fill="#c084fc"/>
  </g>
</svg>