<svg width="180" height="40" viewBox="0 0 180 40" fill="none" xmlns="http://www.w3.org/2000/svg">
  <rect width="40" height="40" rx="10" fill="#18181b"/>
  <line x1="20" y1="24" x2="20" y2="34" stroke="#a855f7" stroke-width="2.5" stroke-linecap="round"/>
  <line x1="10" y1="24" x2="30" y2="24" stroke="#a855f7" stroke-width="2.5" stroke-linecap="round"/>
  <circle cx="20" cy="24" r="3" fill="#c084fc"/>
  <path d="M12 14C12 9 16 5 20 5C24 5 28 9 28 14V20C28 20 24 17 20 17C16 17 12 20 12 20V14Z" fill="none" stroke="#a855f7" stroke-width="2.5" stroke-linecap="round"/>
  <path d="M20 8L21 11L24 12L21 13L20 16L19 13L16 12L19 11Z" fill="#c084fc"/>
  <text x="52" y="30" fill="white" font-family="system-ui, -apple-system, sans-serif" font-size="20" font-weight="700" letter-spacing="-0.5">MergeMind</text>
</svg>