<svg width="1200" height="420" viewBox="0 0 1200 420" xmlns="http://www.w3.org/2000/svg">



<defs>



<linearGradient id="purple" x1="0%" y1="0%" x2="100%" y2="100%">

<stop offset="0%" stop-color="#9B5CF6"/>

<stop offset="100%" stop-color="#6D28D9"/>

</linearGradient>



<filter id="blur">

<feGaussianBlur stdDeviation="80"/>

</filter>



<filter id="shadow">

<feDropShadow dx="0" dy="0" stdDeviation="8" flood-color="#8B5CF6" flood-opacity="0.35"/>

</filter>



</defs>



<!-- Background -->



<rect width="1200" height="420" fill="#0b0b10"/>



<!-- Purple Glow -->



<circle

cx="550"

cy="210"

r="180"

fill="#6D28D9"

opacity=".18"

filter="url(#blur)"

/>



<!-- Logo -->



<rect

x="110"

y="130"

width="60"

height="60"

rx="18"

fill="#17171f"

stroke="#6D28D9"

/>



<text

x="127"

y="169"

font-size="30"

fill="#9B5CF6">

⚲

</text>



<!-- Title -->



<text

x="190"

y="160"

font-size="46"

font-weight="700"

fill="white"

font-family="Segoe UI, sans-serif">

MergeMind

</text>



<text

x="190"

y="205"

font-size="22"

fill="#cfcfd6"

font-family="Segoe UI">

Find the right GitHub issue in seconds.

</text>



<text

x="190"

y="238"

font-size="17"

fill="#8d8d96"

font-family="Segoe UI">

AI scores every issue by difficulty, merge chance and career value.

</text>



<!-- Dashboard -->



<rect

x="690"

y="80"

width="380"

height="250"

rx="24"

fill="#17171f"

stroke="#2c2c38"

filter="url(#shadow)"

/>



<!-- Window dots -->



<circle cx="715" cy="100" r="5" fill="#FF5F57"/>

<circle cx="731" cy="100" r="5" fill="#FFBD2E"/>

<circle cx="747" cy="100" r="5" fill="#28C840"/>



<!-- Fake search bars -->



<rect x="715" y="125" width="170" height="10" rx="5" fill="#3b3b45"/>



<rect x="715" y="145" width="120" height="8" rx="4" fill="#2d2d36"/>



<!-- Cards -->



<rect x="715" y="180" width="75" height="48" rx="12" fill="#1f1f28" stroke="#282833"/>

<rect x="805" y="180" width="75" height="48" rx="12" fill="#1f1f28" stroke="#282833"/>

<rect x="895" y="180" width="75" height="48" rx="12" fill="#1f1f28" stroke="#282833"/>

<rect x="985" y="180" width="75" height="48" rx="12" fill="#1f1f28" stroke="#282833"/>



<!-- Issue Card -->



<rect

x="715"

y="245"

width="320"

height="60"

rx="16"

fill="#221c31"

stroke="#6D28D9"

/>



<circle

cx="740"

cy="275"

r="12"

fill="url(#purple)"

/>



<text

x="736"

y="279"

fill="white"

font-size="11">

1

</text>



<rect

x="760"

y="265"

width="90"

height="7"

rx="4"

fill="#444"

/>



<rect

x="760"

y="280"

width="160"

height="7"

rx="4"

fill="#555"

/>



<!-- AI Score -->



<circle

cx="995"

cy="274"

r="25"

fill="#252033"

stroke="#9B5CF6"

stroke-width="3"

/>



<text

x="985"

y="271"

font-size="16"

font-weight="700"

fill="#d8b4fe">

92

</text>



<text

x="980"

y="286"

font-size="7"

fill="#9ca3af">

AI SCORE

</text>



<!-- Tech Chips -->



<g font-family="Segoe UI" font-size="11">



<rect x="715" y="330" width="70" height="24" rx="12" fill="#17171f" stroke="#333"/>

<text x="731" y="346" fill="#d1d5db">Next.js</text>



<rect x="800" y="330" width="70" height="24" rx="12" fill="#17171f" stroke="#333"/>

<text x="816" y="346" fill="#d1d5db">FastAPI</text>



<rect x="885" y="330" width="70" height="24" rx="12" fill="#17171f" stroke="#333"/>

<text x="905" y="346" fill="#d1d5db">Ollama</text>



<rect x="970" y="330" width="70" height="24" rx="12" fill="#17171f" stroke="#333"/>

<text x="988" y="346" fill="#d1d5db">Docker</text>



</g>



</svg>
