<svg width="256" height="256" viewBox="0 0 32 32" fill="none" xmlns="http://www.w3.org/2000/svg">
  <rect width="32" height="32" rx="8" fill="#18181B"/>
  <path d="M10 12C10 7.6 12.9 5 16 5C19.1 5 22 7.6 22 12V17C20.6 15.7 18.4 15 16 15C13.6 15 11.4 15.7 10 17V12Z" stroke="#A855F7" stroke-width="2" stroke-linecap="round" stroke-linejoin="round" fill="none"/>
  <path d="M16 7L16.6 8.6L18.2 9.2L16.6 9.8L16 11.4L15.4 9.8L13.8 9.2L15.4 8.6Z" fill="#C084FC"/>
  <line x1="10" y1="19" x2="22" y2="19" stroke="#A855F7" stroke-width="2" stroke-linecap="round"/>
  <circle cx="16" cy="19" r="2.2" fill="#C084FC"/>
  <line x1="16" y1="21.2" x2="16" y2="26" stroke="#A855F7" stroke-width="2" stroke-linecap="round"/>
</svg>