<svg width="32" height="32" viewBox="0 0 32 32" fill="none" xmlns="http://www.w3.org/2000/svg">
  <rect width="32" height="32" rx="8" fill="#18181b"/>
  <line x1="16" y1="20" x2="16" y2="27" stroke="#a855f7" stroke-width="2" stroke-linecap="round"/>
  <line x1="9" y1="20" x2="23" y2="20" stroke="#a855f7" stroke-width="2" stroke-linecap="round"/>
  <circle cx="16" cy="20" r="2.5" fill="#c084fc"/>
  <path d="M10 12.5C10 8.36 13.36 5 17.5 5C21.64 5 25 8.36 25 12.5V18C25 18 21.5 14.5 17.5 14.5C13.5 14.5 10 18 10 18V12.5Z" fill="none" stroke="#a855f7" stroke-width="2" stroke-linecap="round" stroke-linejoin="round"/>
  <path d="M18 8.5L18.8 10.2L20.5 11L18.8 11.8L18 13.5L17.2 11.8L15.5 11L17.2 10.2Z" fill="#c084fc"/>
</svg>